<svg width="1024" height="1024" viewBox="0 0 1024 1024" fill="none" xmlns="http://www.w3.org/2000/svg">
<path d="M800 736.438C738 736.438 685.167 714.583 641.5 670.874C597.833 627.165 576 574.28 576 512.219C576 450.158 597.833 397.273 641.5 353.564C685.167 309.855 738 288 800 288C862 288 914.833 309.855 958.5 353.564C1002.17 397.273 1024 450.158 1024 512.219C1024 574.28 1002.17 627.165 958.5 670.874C914.833 714.583 862 736.438 800 736.438ZM800 352.063C756 352.063 718.333 367.745 687 399.108C655.667 430.472 640 468.176 640 512.219C640 556.262 655.667 593.965 687 625.329C718.333 656.693 756 672.375 800 672.375C844 672.375 881.667 656.693 913 625.329C944.333 593.965 960 556.262 960 512.219C960 468.176 944.333 430.472 913 399.108C881.667 367.745 844 352.063 800 352.063ZM224 736.438C162 736.438 109.167 714.583 65.5 670.874C21.8333 627.165 0 574.28 0 512.219C0 450.158 21.8333 397.273 65.5 353.564C109.167 309.855 162 288 224 288C286 288 338.833 309.855 382.5 353.564C426.167 397.273 448 450.158 448 512.219C448 574.28 426.167 627.165 382.5 670.874C338.833 714.583 286 736.438 224 736.438Z" fill="black"/>
</svg>
