<svg width="338" height="70" viewBox="0 0 338 70" fill="none" xmlns="http://www.w3.org/2000/svg">
<path d="M1.91316 18.8989C1.91316 17.8454 2.01071 17.1431 2.2058 16.7919C2.43991 16.4407 2.94714 16.2261 3.7275 16.1481C4.50786 16.0701 6.1076 16.031 8.52672 16.031V55.8295C8.52672 56.2587 8.42918 56.5513 8.23409 56.7074C8.039 56.8244 7.3952 56.9025 6.30269 56.9415C5.21019 56.9805 3.74701 57 1.91316 57V18.8989ZM31.9275 39.0907C33.1761 40.7685 34.2881 42.973 35.2635 45.7043C36.278 48.4355 36.8438 51.7716 36.9608 55.7124C36.9608 56.1416 36.8828 56.4537 36.7267 56.6488C36.6097 56.8439 36.317 56.9805 35.8488 57.0585C35.3806 57.1366 34.6197 57.1756 33.5663 57.1756C32.5128 57.1756 31.2447 57.1171 29.762 57C29.684 52.9421 29.2743 49.6451 28.5329 47.1089C27.7916 44.5337 26.9332 42.5438 25.9577 41.1392C25.7236 41.1782 25.3725 41.1977 24.9042 41.1977H24.436V55.8295C24.436 56.2587 24.319 56.5513 24.0849 56.7074C23.8898 56.8244 23.2655 56.9025 22.212 56.9415C21.1585 56.9805 19.7344 57 17.9395 57V17.2016C17.9395 17.0065 18.0176 16.7724 18.1736 16.4993C18.3297 16.1871 18.6418 16.031 19.1101 16.031H24.6116C27.2258 16.031 29.3523 16.3822 30.9911 17.0845C32.6298 17.7868 33.8784 19.0159 34.7368 20.7717C35.5952 22.5275 36.0244 24.9662 36.0244 28.0876C36.0244 33.277 34.6588 36.9447 31.9275 39.0907ZM24.436 35.1694H25.6651C26.6796 35.1694 27.4404 34.6427 27.9477 33.5892C28.4549 32.5357 28.7085 30.5848 28.7085 27.7365C28.7085 25.6295 28.4939 24.0883 28.0647 23.1128C27.6745 22.1374 27.0112 21.6496 26.0748 21.6496H24.436V35.1694ZM51.6648 51.2058H59.9757C59.9757 52.7665 59.9562 54.0151 59.9172 54.9516C59.8781 55.888 59.7806 56.4733 59.6245 56.7074C59.5075 56.9025 59.2539 57 58.8637 57H45.1683V17.2016C45.1683 17.0065 45.2464 16.7724 45.4024 16.4993C45.5585 16.1871 45.8707 16.031 46.3389 16.031H60.3854C60.3854 17.5137 60.3659 18.7233 60.3269 19.6597C60.2878 20.5962 60.1903 21.2009 60.0342 21.4741C59.8781 21.7082 59.605 21.8252 59.2148 21.8252H51.6648V31.8334H58.8052C58.8052 33.277 58.7856 34.4866 58.7466 35.462C58.7076 36.3985 58.6101 37.0228 58.454 37.3349C58.3369 37.647 58.1028 37.8031 57.7517 37.8031H51.6648V51.2058ZM83.7834 17.2016C83.7834 16.7724 83.881 16.4993 84.0761 16.3822C84.3102 16.2261 84.954 16.1286 86.0074 16.0896C87.0609 16.0505 88.4851 16.031 90.2799 16.031V55.8295C90.2799 56.1806 90.1824 56.4733 89.9873 56.7074C89.7922 56.9025 89.4996 57 89.1094 57H84.0761L77.8722 41.3147C76.8577 38.7005 75.6872 34.3695 74.3606 28.3217C74.8678 33.316 75.1214 37.8031 75.1214 41.783V55.8295C75.1214 56.2587 75.0239 56.5513 74.8288 56.7074C74.6337 56.8244 73.9899 56.9025 72.8974 56.9415C71.8439 56.9805 70.4197 57 68.6249 57V17.2016C68.6249 16.4212 69.0151 16.031 69.7954 16.031H74.9458L81.0912 31.4237C82.0666 33.8818 83.2177 38.0177 84.5443 43.8314C84.037 39.1102 83.7834 34.7792 83.7834 30.8384V17.2016ZM105.551 51.2058H113.862C113.862 52.7665 113.842 54.0151 113.803 54.9516C113.764 55.888 113.667 56.4733 113.511 56.7074C113.394 56.9025 113.14 57 112.75 57H99.0544V17.2016C99.0544 17.0065 99.1324 16.7724 99.2885 16.4993C99.4446 16.1871 99.7567 16.031 100.225 16.031H114.271C114.271 17.5137 114.252 18.7233 114.213 19.6597C114.174 20.5962 114.076 21.2009 113.92 21.4741C113.764 21.7082 113.491 21.8252 113.101 21.8252H105.551V31.8334H112.691C112.691 33.277 112.672 34.4866 112.633 35.462C112.594 36.3985 112.496 37.0228 112.34 37.3349C112.223 37.647 111.989 37.8031 111.638 37.8031H105.551V51.2058ZM147.07 57.5853C144.183 57.5853 141.959 57.078 140.398 56.0636C138.877 55.0491 137.862 53.703 137.355 52.0252C136.848 50.3474 136.594 48.26 136.594 45.7628V17.2601C136.594 16.7919 136.692 16.4993 136.887 16.3822C137.082 16.2261 137.57 16.1286 138.35 16.0896C139.169 16.0505 140.828 16.031 143.325 16.031V45.9969C143.325 48.0258 143.578 49.4695 144.086 50.3279C144.593 51.1863 145.588 51.6155 147.07 51.6155C148.514 51.6155 149.665 51.3814 150.524 50.9132V17.2601C150.524 16.7919 150.621 16.4993 150.816 16.3822C151.011 16.2261 151.499 16.1286 152.279 16.0896C153.06 16.0505 154.679 16.031 157.137 16.031V55.3612C156.279 55.9075 154.952 56.4147 153.157 56.8829C151.362 57.3512 149.333 57.5853 147.07 57.5853ZM165.995 17.6698C165.995 17.0845 166.092 16.6943 166.287 16.4993C166.522 16.2651 167.009 16.1286 167.751 16.0896C168.531 16.0505 170.111 16.031 172.491 16.031V50.9132H180.802V55.8295C180.802 56.6098 180.431 57 179.69 57H165.995V17.6698ZM194.294 57.3512C192.382 57.3512 191.172 56.2001 190.665 53.8981C189.806 50.0353 188.577 43.7729 186.978 35.1109C185.417 26.4098 184.383 20.6157 183.876 17.7283C183.798 17.2601 183.759 16.9675 183.759 16.8504C183.759 16.5383 183.876 16.3237 184.11 16.2066C184.344 16.0896 184.754 16.031 185.339 16.031H190.782L193.767 35.2279C194.352 39.0127 195.074 44.4947 195.932 51.674C196.479 45.5092 197.122 40.0271 197.864 35.2279L200.439 17.7868C200.517 17.1235 200.653 16.6748 200.849 16.4407C201.083 16.1676 201.473 16.031 202.019 16.031H207.755L199.971 57C198.059 57.2341 196.166 57.3512 194.294 57.3512ZM222.148 51.2058H230.459C230.459 52.7665 230.439 54.0151 230.4 54.9516C230.361 55.888 230.264 56.4733 230.108 56.7074C229.99 56.9025 229.737 57 229.347 57H215.651V17.2016C215.651 17.0065 215.729 16.7724 215.885 16.4993C216.042 16.1871 216.354 16.031 216.822 16.031H230.868C230.868 17.5137 230.849 18.7233 230.81 19.6597C230.771 20.5962 230.673 21.2009 230.517 21.4741C230.361 21.7082 230.088 21.8252 229.698 21.8252H222.148V31.8334H229.288C229.288 33.277 229.269 34.4866 229.23 35.462C229.191 36.3985 229.093 37.0228 228.937 37.3349C228.82 37.647 228.586 37.8031 228.235 37.8031H222.148V51.2058ZM245.956 57.5853C243.458 57.5853 241.547 57.2146 240.22 56.4733C238.932 55.6929 238.289 54.7565 238.289 53.664C238.289 52.9616 238.406 52.2008 238.64 51.3814C238.913 50.523 239.283 49.7231 239.752 48.9818C240.376 49.5671 241.176 50.0353 242.151 50.3864C243.166 50.7376 244.18 50.9132 245.195 50.9132C246.755 50.9132 247.867 50.523 248.531 49.7426C249.194 48.9623 249.526 47.8308 249.526 46.3481C249.526 45.3336 249.331 44.3777 248.94 43.4802C248.589 42.5828 247.906 41.4513 246.892 40.0857L241.566 33.0039C240.278 31.3261 239.401 29.8239 238.932 28.4973C238.464 27.1707 238.23 25.8051 238.23 24.4004C238.23 21.6691 239.127 19.5036 240.922 17.9039C242.717 16.2651 245.292 15.4458 248.648 15.4458C251.496 15.4458 253.525 15.7189 254.735 16.2651C255.983 16.8114 256.608 17.6308 256.608 18.7233C256.608 20.0109 256.1 21.2204 255.086 22.352C254.735 22.0788 254.052 21.8252 253.037 21.5911C252.023 21.318 251.008 21.1814 249.994 21.1814C248.511 21.1814 247.36 21.435 246.541 21.9423C245.721 22.4495 245.312 23.2104 245.312 24.2248C245.312 25.1222 245.468 25.9416 245.78 26.683C246.092 27.4243 246.658 28.3412 247.477 29.4337L253.096 36.6326C254.462 38.3884 255.378 39.9881 255.847 41.4318C256.354 42.8364 256.608 44.4167 256.608 46.1725C256.608 49.5671 255.808 52.3178 254.208 54.4248C252.608 56.5318 249.857 57.5853 245.956 57.5853ZM271.576 51.2058H279.887C279.887 52.7665 279.867 54.0151 279.828 54.9516C279.789 55.888 279.692 56.4733 279.535 56.7074C279.418 56.9025 279.165 57 278.775 57H265.079V17.2016C265.079 17.0065 265.157 16.7724 265.313 16.4993C265.469 16.1871 265.782 16.031 266.25 16.031H280.296C280.296 17.5137 280.277 18.7233 280.238 19.6597C280.199 20.5962 280.101 21.2009 279.945 21.4741C279.789 21.7082 279.516 21.8252 279.126 21.8252H271.576V31.8334H278.716C278.716 33.277 278.697 34.4866 278.658 35.462C278.619 36.3985 278.521 37.0228 278.365 37.3349C278.248 37.647 278.014 37.8031 277.663 37.8031H271.576V51.2058ZM309.007 16.031V20.9473C309.007 21.4155 308.909 21.7277 308.714 21.8837C308.558 22.0398 308.265 22.1179 307.836 22.1179H301.574V55.8295C301.574 56.2587 301.457 56.5513 301.223 56.7074C301.027 56.8244 300.403 56.9025 299.35 56.9415C298.296 56.9805 296.872 57 295.077 57V22.1179H287.937V17.2016C287.937 16.4212 288.327 16.031 289.107 16.031H309.007ZM335.981 55.8295C335.981 56.2587 335.883 56.5513 335.688 56.7074C335.532 56.8244 334.908 56.9025 333.815 56.9415C332.762 56.9805 331.318 57 329.484 57V38.2128H323.749V55.8295C323.749 56.2587 323.651 56.5513 323.456 56.7074C323.3 56.8244 322.676 56.9025 321.583 56.9415C320.53 56.9805 319.086 57 317.252 57V17.2016C317.252 16.7724 317.33 16.4993 317.486 16.3822C317.681 16.2261 318.306 16.1286 319.359 16.0896C320.452 16.0505 321.915 16.031 323.749 16.031V32.126H329.484V17.2016C329.484 16.7724 329.562 16.4993 329.718 16.3822C329.913 16.2261 330.538 16.1286 331.591 16.0896C332.684 16.0505 334.147 16.031 335.981 16.031V55.8295Z" fill="#D275C3"/>
</svg>
